<?xml version="1.0" encoding="UTF-8"?>
<svg width="29px" height="29px" viewBox="0 0 29 29" version="1.1" xmlns="http://www.w3.org/2000/svg" xmlns:xlink="http://www.w3.org/1999/xlink">
    <title>850AC9C3-BBE4-4B76-9E57-8DBA0F0D5736@1x</title>
    <g id="-☁️-Asset-and-status-compilations" stroke="none" stroke-width="1" fill="none" fill-rule="evenodd">
        <g id="Non-HDS-icons" transform="translate(-134.000000, -1062.000000)" fill="#1A1A1A">
            <g id="Helsinki_icon_set_Kirjasto_lukupiste-(2)-Copy-4" transform="translate(132.000000, 1060.000000)">
                <path d="M21.8421394,8.30867161 C21.7426678,8.30867161 21.6483805,8.31426551 21.5518251,8.31706245 L21.5518251,2 L17.2641811,2 C14.0580874,2 11.449795,4.5017146 11.449795,7.57680355 L11.449795,8.31737323 C11.3525915,8.31457628 11.2579802,8.30867161 11.1578606,8.30867161 L2,8.30867161 L2,28.804085 L11.1578606,28.804085 C13.5782264,28.804085 14.8477034,29.5412362 15.8019173,30.356702 L16.3909701,30.9216855 L16.4045786,30.9083223 C16.4366558,30.9390887 16.4684089,30.9695443 16.500162,31 C17.5668078,29.9766278 18.7896272,28.804085 21.8421394,28.804085 L31,28.804085 L31,8.30867161 L21.8421394,8.30867161 Z M13.9200585,7.57680355 C13.9200585,5.80820009 15.4202317,4.36932573 17.2641811,4.36932573 L19.0815615,4.36932573 L19.0815615,18.1035835 L17.2632091,18.1035835 C16.0238651,18.1035835 14.8690882,18.48863 13.9200585,19.1421835 L13.9200585,7.57680355 Z M13.9200585,23.6918856 C13.9404713,22.6489348 14.467962,21.7234558 15.2650302,21.1348536 L15.2650302,26.4906983 L14.8979252,26.1389044 C14.3347932,25.5987826 13.9492196,24.6652235 13.9200585,23.7872926 L13.9200585,23.6918856 Z M4.47026357,26.4347593 L4.47026357,10.6779973 L11.1578606,10.6779973 C11.2586282,10.6779973 11.3535636,10.6829697 11.449471,10.686699 L11.4481749,23.6813194 C11.4481749,24.6456449 11.703496,25.6264413 12.1519279,26.4723627 C11.8356927,26.4484333 11.505849,26.4347593 11.1578606,26.4347593 L4.47026357,26.4347593 Z M28.5297364,26.4347593 L21.8421394,26.4347593 C20.1041418,26.4347593 18.7782868,26.7511252 17.7352938,27.2029877 L17.7352938,20.47322 L21.5518251,20.47322 L21.5518251,10.6860774 C21.6474085,10.6823482 21.7416958,10.6779973 21.8421394,10.6779973 L28.5297364,10.6779973 L28.5297364,26.4347593 Z"></path>
            </g>
        </g>
    </g>
</svg>