<?xml version="1.0" encoding="UTF-8"?>
<svg width="20px" height="20px" viewBox="0 0 20 20" version="1.1" xmlns="http://www.w3.org/2000/svg" xmlns:xlink="http://www.w3.org/1999/xlink">
    <title>CCF44D6B-DDE6-4BF9-8E4A-EACD1A11FA8D@1x</title>
    <g id="-☁️-Asset-compilations" stroke="none" stroke-width="1" fill="none" fill-rule="evenodd">
        <g id="Non-HDS-icons" transform="translate(-159.000000, -242.000000)" fill="#1A1A1A">
            <g id="Fill-1-Copy" transform="translate(157.000000, 240.000000)">
                <path d="M20.310608,16.5688572 L12.1770302,20.3019727 C9.35152209,19.398065 5.0677308,18.0091412 4.65264718,17.8242759 C3.94833966,17.4967959 3.62803093,17.0805742 3.70050585,16.5869196 C3.74054444,16.3142552 3.84579356,16.1237356 4.01338125,16.0205441 C4.14295762,15.9405981 4.32473619,15.9002325 4.54097837,15.9002325 C4.7165062,15.9002325 4.91484082,15.9267764 5.12652164,15.9801784 C5.67270207,16.1179242 10.2499408,17.5330778 11.9675456,18.0666269 L12.2949498,18.1684049 L20.310608,14.5372244 L20.310608,16.5688572 Z M13.5233067,3.68169253 L19.6821542,5.35945844 L12.1755098,8.76226676 C11.127411,8.43729974 7.89594194,7.43648301 6.34693842,6.97534083 L13.5233067,3.68169253 Z M4.65264718,10.1112961 C3.94833966,9.78381605 3.62803093,9.3675944 3.70050585,8.87393981 C3.74054444,8.60127537 3.84579356,8.4107558 4.01338125,8.30740717 C4.14312655,8.22761827 4.32473619,8.18740969 4.54097837,8.18740969 C4.7165062,8.18740969 4.91484082,8.21395363 5.1263527,8.26735566 C5.67253313,8.4049444 10.2499408,9.82009801 11.9675456,10.353647 L12.2949498,10.455425 L20.310608,6.82424452 L20.310608,8.85587736 L12.1770302,12.5889929 C9.35152209,11.6850851 5.0677308,10.2961613 4.65264718,10.1112961 L4.65264718,10.1112961 Z M4.65264718,13.9677075 C3.94833966,13.6402274 3.62803093,13.2240058 3.70050585,12.7305083 C3.74054444,12.4576868 3.84579356,12.2671672 4.01338125,12.1639756 C4.14312655,12.0840297 4.32473619,12.043664 4.54097837,12.043664 C4.7165062,12.043664 4.91484082,12.070208 5.1263527,12.12361 C5.67253313,12.2615128 10.2499408,13.6765094 11.9675456,14.2100584 L12.2949498,14.3118364 L20.310608,10.680813 L20.310608,12.7124458 L12.1770302,16.4454043 C9.35152209,15.5414965 5.0677308,14.1525727 4.65264718,13.9677075 L4.65264718,13.9677075 Z M13.3709235,2 L3.32056159,6.6544575 C2.46927696,7.1578501 2.15285384,7.80040209 2.02648732,8.6617453 C1.8992761,9.53015644 2.23580299,10.32192 2.96359306,10.9321166 C2.58145259,11.2013256 2.14913718,11.6827292 2.02648732,12.5181567 C1.8992761,13.3865678 2.23580299,14.1781743 2.96359306,14.788528 C2.58145259,15.0578941 2.14913718,15.5392976 2.02648732,16.3747251 C1.85332464,17.5555381 2.53516325,18.5959352 3.89715108,19.2290633 C4.48235647,19.5010995 10.7168887,21.4964503 11.960788,21.8936671 L12.2935983,22 L22,17.5450148 L22,13.6886034 L22,12.0248162 L22,9.832192 L22,8.16840485 L22,4.3118364 L13.3709235,2 Z"></path>
            </g>
        </g>
    </g>
</svg>