<?xml version="1.0" encoding="UTF-8"?>
<svg width="15px" height="18px" viewBox="0 0 15 18" version="1.1" xmlns="http://www.w3.org/2000/svg" xmlns:xlink="http://www.w3.org/1999/xlink">
    <title>BFBB7763-28F7-4838-90B4-2FAF83A9E523@1x</title>
    <g id="-☁️-Asset-compilations" stroke="none" stroke-width="1" fill="none" fill-rule="evenodd">
        <g id="Non-HDS-icons" transform="translate(-480.000000, -201.000000)" fill="#000000">
            <g id="applications_icon" transform="translate(475.000000, 198.000000)">
                <path d="M6.45083333,10.7142857 L6.45161383,19.5857146 L18.5483871,19.5857146 L18.5483871,10.7142857 L20,10.7142857 L20,21 L5,21 L5,10.7142857 L6.45083333,10.7142857 Z M17.1666667,16.7142857 L17.1666667,18.1714286 L7.5,18.1714286 L7.5,16.7142857 L17.1666667,16.7142857 Z M17.1666667,14.1428571 L17.1666667,15.6 L7.5,15.6 L7.5,14.1428571 L17.1666667,14.1428571 Z M11.9878414,3 L13.2311229,3.01911858 L13.2311229,8.25123487 L15.9380085,5.45720972 L16.7435627,6.41388102 L12.609629,10.6995953 L8.33333333,6.41388102 L9.1547107,5.45720972 L11.9878414,8.25032774 L11.9878414,3 Z"></path>
            </g>
        </g>
    </g>
</svg>