<?xml version="1.0" encoding="UTF-8"?>
<svg width="27px" height="28px" viewBox="0 0 27 28" version="1.1" xmlns="http://www.w3.org/2000/svg" xmlns:xlink="http://www.w3.org/1999/xlink">
    <title>D33AC518-4F26-49B3-B1A5-14A57E5E6994@1x</title>
    <g id="-☁️-Asset-and-status-compilations" stroke="none" stroke-width="1" fill="none" fill-rule="evenodd">
        <g id="Non-HDS-icons" transform="translate(-135.000000, -1006.000000)" fill="#1A1A1A" fill-rule="nonzero">
            <g id="Group" transform="translate(132.000000, 1004.000000)">
                <g id="download" transform="translate(3.000000, 2.000000)">
                    <path d="M4.07365182,27.655926 C1.82833192,27.655926 0,25.8275941 0,23.5822742 L0,7.79446766 C0,5.54914776 1.82833192,3.72081584 4.07365182,3.72081584 L5.67745175,3.72081584 L5.67745175,0 L7.98692365,0 L7.98692365,3.72081584 L19.1493712,3.72081584 L19.1493712,0 L21.4588431,0 L21.4588431,3.72081584 L22.806035,3.72081584 C25.0513549,3.72081584 26.8796868,5.54914776 26.886102,7.79446766 L26.886102,23.5822742 C26.886102,25.8275941 25.0577701,27.655926 22.8124502,27.655926 L4.07365182,27.655926 Z M2.3094719,23.575859 C2.3094719,24.5509693 3.09854147,25.3400389 4.07365182,25.3400389 L22.806035,25.3400389 C23.7811454,25.3400389 24.5702149,24.5509693 24.5702149,23.575859 L24.5702149,12.6058675 L2.3094719,12.6058675 L2.3094719,23.575859 Z M4.07365182,6.03028774 C3.09854147,6.03028774 2.3094719,6.8193573 2.3094719,7.79446766 L2.3094719,10.2963956 L24.5766301,10.2963956 L24.5766301,7.79446766 C24.5766301,6.8193573 23.7875606,6.03028774 22.8124502,6.03028774 L4.07365182,6.03028774 Z" id="Shape"></path>
                    <path d="M4.90762779,15.2360993 L7.47370768,15.2360993 L7.47370768,17.8021792 L4.90762779,17.8021792 L4.90762779,15.2360993 Z M9.73185798,15.2681753 L12.2979379,15.2681753 L12.2979379,17.8342552 L9.73185798,17.8342552 L9.73185798,15.2681753 Z M14.549673,15.2681753 L17.1157529,15.2681753 L17.1157529,17.8342552 L14.549673,17.8342552 L14.549673,15.2681753 Z M19.3739032,15.2681753 L21.939983,15.2681753 L21.939983,17.8342552 L19.3739032,17.8342552 L19.3739032,15.2681753 Z M4.90762779,20.1758031 L7.47370768,20.1758031 L7.47370768,22.741883 L4.90762779,22.741883 L4.90762779,20.1758031 Z M9.73185798,20.2078791 L12.2979379,20.2078791 L12.2979379,22.773959 L9.73185798,22.773959 L9.73185798,20.2078791 Z M14.549673,20.2078791 L17.1157529,20.2078791 L17.1157529,22.773959 L14.549673,22.773959 L14.549673,20.2078791 Z" id="Shape"></path>
                </g>
            </g>
        </g>
    </g>
</svg>