<?xml version="1.0" encoding="UTF-8"?>
<svg width="18px" height="19px" viewBox="0 0 18 19" version="1.1" xmlns="http://www.w3.org/2000/svg" xmlns:xlink="http://www.w3.org/1999/xlink">
    <title>3951083E-9518-4C68-9206-310BCF04C611@1x</title>
    <g id="-☁️-Asset-compilations" stroke="none" stroke-width="1" fill="none" fill-rule="evenodd">
        <g id="Non-HDS-icons" transform="translate(-478.000000, -243.000000)" fill="#1A1A1A">
            <g id="customers_icon" transform="translate(475.000000, 240.000000)">
                <path d="M18.6545439,17.8059142 C19.9475227,17.8059142 21,18.8657915 21,20.1684978 L21,20.1684978 L21,22 L19.7203509,22 L19.7203509,20.1684978 C19.7203509,19.5762806 19.2424678,19.0946221 18.6545439,19.0946221 L18.6545439,19.0946221 L15.2432808,19.0946221 C14.6553569,19.0946221 14.1771902,19.5762806 14.1771902,20.1684978 L14.1771902,20.1684978 L14.1771902,22 L12.8978247,22 L12.8978247,20.1684978 C12.8978247,18.8657915 13.950302,17.8059142 15.2432808,17.8059142 L15.2432808,17.8059142 Z M8.7567192,17.8059142 C10.049698,17.8059142 11.1021753,18.8657915 11.1021753,20.1684978 L11.1021753,20.1684978 L11.1021753,22 L9.82280982,22 L9.82280982,20.1684978 C9.82280982,19.5762806 9.34464308,19.0946221 8.7567192,19.0946221 L8.7567192,19.0946221 L5.34545609,19.0946221 C4.75753221,19.0946221 4.27936547,19.5762806 4.27936547,20.1684978 L4.27936547,20.1684978 L4.27936547,22 L3,22 L3,20.1684978 C3,18.8657915 4.05247733,17.8059142 5.34545609,17.8059142 L5.34545609,17.8059142 Z M16.948884,12.4998714 C18.1970523,12.4998714 19.2089734,13.5188963 19.2089734,14.776465 C19.2089734,16.033748 18.1970523,17.0530585 16.948884,17.0530585 C15.700432,17.0530585 14.6887946,16.033748 14.6887946,14.776465 C14.6887946,13.5188963 15.700432,12.4998714 16.948884,12.4998714 Z M7.05105928,12.4998714 C8.29922763,12.4998714 9.31114872,13.5188963 9.31114872,14.776465 C9.31114872,16.033748 8.29922763,17.0530585 7.05105928,17.0530585 C5.80289093,17.0530585 4.79096985,16.033748 4.79096985,14.776465 C4.79096985,13.5188963 5.80289093,12.4998714 7.05105928,12.4998714 Z M16.948884,13.7885794 C16.4080394,13.7885794 15.96816,14.2316709 15.96816,14.776465 C15.96816,15.321259 16.4080394,15.7643506 16.948884,15.7643506 C17.489445,15.7643506 17.929608,15.321259 17.929608,14.776465 C17.929608,14.2316709 17.489445,13.7885794 16.948884,13.7885794 Z M7.05105928,13.7885794 C6.51021469,13.7885794 6.07033532,14.2316709 6.07033532,14.776465 C6.07033532,15.321259 6.51021469,15.7643506 7.05105928,15.7643506 C7.59190388,15.7643506 8.03178325,15.321259 8.03178325,14.776465 C8.03178325,14.2316709 7.59190388,13.7885794 7.05105928,13.7885794 Z M18.6545439,8.30601419 C19.9475227,8.30601419 21,9.36589147 21,10.6685978 L21,10.6685978 L21,12.5001 L19.7203509,12.5001 L19.7203509,10.6685978 C19.7203509,10.0763806 19.2424678,9.59472211 18.6545439,9.59472211 L18.6545439,9.59472211 L15.2432808,9.59472211 C14.6553569,9.59472211 14.1771902,10.0763806 14.1771902,10.6685978 L14.1771902,10.6685978 L14.1771902,12.5001 L12.8978247,12.5001 L12.8978247,10.6685978 C12.8978247,9.36589147 13.950302,8.30601419 15.2432808,8.30601419 L15.2432808,8.30601419 Z M8.7567192,8.30601419 C10.049698,8.30601419 11.1021753,9.36589147 11.1021753,10.6685978 L11.1021753,10.6685978 L11.1021753,12.5001 L9.82280982,12.5001 L9.82280982,10.6685978 C9.82280982,10.0763806 9.34464308,9.59472211 8.7567192,9.59472211 L8.7567192,9.59472211 L5.34545609,9.59472211 C4.75753221,9.59472211 4.27936547,10.0763806 4.27936547,10.6685978 L4.27936547,10.6685978 L4.27936547,12.5001 L3,12.5001 L3,10.6685978 C3,9.36589147 4.05247733,8.30601419 5.34545609,8.30601419 L5.34545609,8.30601419 Z M16.948884,3 C18.1970523,3 19.2089734,4.01902486 19.2089734,5.27659354 C19.2089734,6.53387653 18.1970523,7.55318707 16.948884,7.55318707 C15.700432,7.55318707 14.6887946,6.53387653 14.6887946,5.27659354 C14.6887946,4.01902486 15.700432,3 16.948884,3 Z M7.05105928,3 C8.29922763,3 9.31114872,4.01902486 9.31114872,5.27659354 C9.31114872,6.53387653 8.29922763,7.55318707 7.05105928,7.55318707 C5.80289093,7.55318707 4.79096985,6.53387653 4.79096985,5.27659354 C4.79096985,4.01902486 5.80289093,3 7.05105928,3 Z M16.948884,4.28870792 C16.4080394,4.28870792 15.96816,4.73179948 15.96816,5.27659354 C15.96816,5.8213876 16.4080394,6.26447915 16.948884,6.26447915 C17.489445,6.26447915 17.929608,5.8213876 17.929608,5.27659354 C17.929608,4.73179948 17.489445,4.28870792 16.948884,4.28870792 Z M7.05105928,4.28870792 C6.51021469,4.28870792 6.07033532,4.73179948 6.07033532,5.27659354 C6.07033532,5.8213876 6.51021469,6.26447915 7.05105928,6.26447915 C7.59190388,6.26447915 8.03178325,5.8213876 8.03178325,5.27659354 C8.03178325,4.73179948 7.59190388,4.28870792 7.05105928,4.28870792 Z"></path>
            </g>
        </g>
    </g>
</svg>