<?xml version="1.0" encoding="UTF-8"?>
<svg width="24px" height="24px" viewBox="0 0 24 24" version="1.1" xmlns="http://www.w3.org/2000/svg" xmlns:xlink="http://www.w3.org/1999/xlink">
    <title>icons/luonnos</title>
    <g id="icons/luonnos" stroke="none" stroke-width="1" fill="none" fill-rule="evenodd">
        <path d="M5.18153939,7.50585129 L3.69505313,6.16780847 L4.12527095,5.6993573 C4.19636638,5.62354516 4.26715642,5.54886913 4.33763864,5.47533606 L4.75681859,5.04790833 C7.87267232,1.94589224 10.3553345,1.18621625 11.9832025,3.39476955 C12.7246058,4.40064274 12.5128272,5.50945511 11.669817,6.60079816 L11.4983117,6.81553759 L11.3200151,7.0230124 L11.1270466,7.23120205 L10.9115259,7.44808602 L10.6655727,7.68164377 L10.3813067,7.93985477 L9.66631435,8.56215436 L8.60696116,9.46641045 L8.32828428,9.7117994 L7.990913,10.01975 L7.69703905,10.3025969 C6.74298807,11.2503394 6.5628034,11.7637271 6.88981288,12.1254625 C7.04390165,12.2959144 7.30382555,12.301711 7.7406247,12.089764 L7.93886055,11.9854436 L8.15999728,11.853532 L8.40527757,11.6931006 L8.67594411,11.5032208 L8.97323958,11.2829638 C9.02507694,11.2436713 9.07807562,11.2030744 9.1322615,11.1611537 L9.4718304,10.8935898 L9.84113494,10.5933271 L10.2414178,10.259437 L10.9026449,9.69351903 L11.5668091,9.1153935 L12.1102513,8.65027824 C12.1968473,8.57719732 12.2815479,8.50628247 12.3644936,8.43745405 L12.8422305,8.04888369 C13.6835887,7.38007039 14.3465565,6.94444504 15.0179255,6.63602048 C16.4860954,5.96154845 17.8242728,6.10087634 18.7790372,7.28719779 C19.7981519,8.55347617 19.5007957,9.99107611 18.2971196,11.4590893 L18.0902264,11.7040015 L17.8735173,11.945367 L17.6427938,12.1872789 L17.3938572,12.4338302 C17.3506168,12.4755361 17.3064425,12.5176059 17.261247,12.5601247 L16.9771186,12.8213096 L16.6642808,13.0973663 L16.1320097,13.5482896 L15.7290297,13.8794329 L14.7886582,14.6334048 L14.1853512,15.110942 L13.4565802,15.697984 L12.8097919,16.2349282 L12.4229104,16.5664069 L12.0706129,16.877642 L11.7521582,17.1694421 L11.4668053,17.4426161 L11.213813,17.6979728 L10.9924403,17.9363208 L10.8019461,18.1584691 C10.27604,18.801423 10.1569883,19.2365983 10.3547471,19.5622616 C11.0172636,20.6532738 12.4913664,20.4880151 14.9007908,18.735013 L15.3110431,18.4280878 L15.7387435,18.0914189 C15.8842324,17.9742008 16.0326506,17.8519686 16.1840193,17.7246654 L16.6469977,17.3274861 C16.7256431,17.2587351 16.8050313,17.1887022 16.8851652,17.1173802 L17.3749363,16.6739229 C17.5411898,16.5209097 17.7104467,16.3626835 17.8827283,16.1991874 L18.143422,15.9499836 L19.5305416,17.3907818 C19.0808577,17.8237121 18.6421534,18.2294716 18.2146409,18.6074913 L17.7070116,19.0477634 L17.2102081,19.4611869 L16.7243119,19.8475431 C12.9610581,22.7674168 10.2092375,23.1758738 8.64525288,20.6003509 C7.87702762,19.3352607 8.2916877,17.995474 9.50843403,16.5937871 L9.71577699,16.3607341 L9.92992775,16.1321224 L10.1556129,15.9035174 L10.3975592,15.6704841 L10.6604931,15.4285877 L11.1045854,15.0394237 L11.4406676,14.7559672 L12.0166383,14.2836746 L14.2503967,12.5031415 L14.8504034,12.012129 L15.3584001,11.5811868 L15.6528677,11.3206685 L15.9168214,11.0769543 L16.1544132,10.8460869 L16.3697949,10.6241087 L16.5671183,10.4070621 C16.5987313,10.3710788 16.6297649,10.3351361 16.6603055,10.2991516 L16.7505351,10.1909899 C17.4242064,9.36937486 17.5189362,8.91139341 17.2209628,8.54115309 C16.7719146,7.98319818 15.9509645,8.19822695 14.3485069,9.41844041 L13.9646496,9.71797734 L13.5519279,10.0538354 L13.109223,10.4266488 L11.7960319,11.567023 L11.072641,12.1850756 L10.7650436,12.4406819 L10.355312,12.769202 L10.1083258,12.9577854 L9.87565456,13.1269552 L9.6516241,13.2809374 C9.61469054,13.3055703 9.57788058,13.3297464 9.54107604,13.3535538 L9.31936797,13.4926783 L9.0921156,13.6271803 C7.65529601,14.4548861 6.36505723,14.5273713 5.40618037,13.4666689 C4.00945356,11.9216201 4.64241023,10.4297271 6.61167199,8.57242238 L7.0929506,8.13398032 L7.51196999,7.7696464 L8.33335969,7.06848883 L8.69907672,6.74868148 L9.0251204,6.45592373 L9.31294717,6.18892081 L9.56401348,5.94637799 L9.77977578,5.72700051 L9.9616905,5.52949362 C10.402961,5.03081849 10.4987261,4.75161903 10.3732694,4.58140995 C9.95459897,4.01339342 9.20060098,4.03409273 8.04561542,4.82895656 L7.74847713,5.04390826 C7.59569303,5.15955564 7.436558,5.28754082 7.27094381,5.42822599 L6.93103854,5.72663697 C6.81483182,5.83182329 6.69570747,5.94276137 6.5736275,6.05955853 L6.1984827,6.42763457 L5.80537617,6.83150902 L5.39407991,7.27182581 L5.18153939,7.50585129 Z" id="Path-15" fill="#1A1A1A" fill-rule="nonzero"></path>
    </g>
</svg>