<?xml version="1.0" encoding="UTF-8"?>
<svg viewBox="0 0 19 21" version="1.1" xmlns="http://www.w3.org/2000/svg" xmlns:xlink="http://www.w3.org/1999/xlink">
    <title>5AE22EA6-D997-479F-B426-505239268DC1@1x</title>
    <g id="-☁️-Asset-compilations" stroke="none" stroke-width="1" fill="none" fill-rule="evenodd">
        <g id="Non-HDS-icons" transform="translate(-160.000000, -201.000000)" fill="#1A1A1A">
            <g id="Group" transform="translate(157.000000, 200.000000)">
                <g id="Helsinki_icon_set_Lippu_lipun-osto-Copy-2" transform="translate(3.000000, 1.000000)">
                    <path d="M8.85121541,0.121490594 C8.85121541,2.45695729 7.90465652,4.57124953 6.37423095,6.1016751 L2.77047138,9.70543467 C1.24004582,11.2358602 0.271454221,13.5153978 0.271454221,15.8508645 L10.3028317,20.1404626 C10.3028317,17.8052784 11.249673,15.6909861 12.7800986,14.1602781 L16.3838582,10.556801 C17.9142838,9.02637541 18.8608426,6.74655542 18.8608426,4.41137119 L8.85121541,0.121490594 Z M15.8047935,7.80299536 C15.6062167,7.60413608 15.329678,7.49030044 15.0489023,7.49030044 C14.7655843,7.49030044 14.4896105,7.60470102 14.2896214,7.80469018 C14.0907621,8.00496182 13.9763615,8.28093557 13.9763615,8.56255873 C13.9763615,8.84587672 14.0907621,9.12185047 14.2896214,9.3221221 C14.3393362,9.37155445 14.3941355,9.41590233 14.4526069,9.4546008 L11.2635141,12.6436936 C10.0045428,13.9026649 9.10120187,15.4223566 8.60377119,17.0813063 L2.55777104,14.4955707 C2.81764397,13.2510053 3.42439076,12.0846843 4.28733836,11.2220192 L7.89081546,7.61825961 C8.21735144,7.29200609 8.51931249,6.94767446 8.79698106,6.58808943 C8.99555787,6.78751365 9.27209656,6.90134929 9.55315478,6.90134929 C9.83477795,6.90134929 10.1107517,6.78694871 10.3110233,6.58667707 C10.511295,6.38781779 10.6254131,6.11043169 10.6254131,5.82880852 C10.6254131,5.54577301 10.511295,5.26951679 10.3110233,5.07093998 C10.1966228,4.95597445 10.0562349,4.87038587 9.90426571,4.81756387 C10.1644211,4.29160367 10.381076,3.74558805 10.549711,3.18290667 L16.5779155,5.76638253 C16.4301834,6.48922472 16.1643786,7.18099516 15.8047935,7.80299536 L15.8047935,7.80299536 Z" id="Fill-1"></path>
                    <path d="M12.7810308,6.23759994 C12.2519634,5.97151266 11.6070831,6.18619029 11.3424081,6.71525768 C11.0766033,7.24432506 11.2909985,7.88920538 11.8200659,8.15529266 C11.9745773,8.23240713 12.1389752,8.26799842 12.3005483,8.26799842 C12.6937474,8.26799842 13.0714105,8.0521909 13.2601009,7.6759401 C13.5247758,7.14687271 13.3115105,6.50199239 12.7810308,6.23759994" id="Fill-3"></path>
                </g>
            </g>
        </g>
    </g>
</svg>